<?xml version="1.0" encoding="UTF-8"?>
<svg id="Ebene_2" data-name="Ebene 2" xmlns="http://www.w3.org/2000/svg" viewBox="0 0 425.2 425.2">
  <defs>
    <style>
      .cls-1 {
        fill: none;
      }

      .cls-1, .cls-2, .cls-3 {
        stroke: #292c2f;
        stroke-width: 7.94px;
      }

      .cls-1, .cls-3 {
        stroke-miterlimit: 10;
      }

      .cls-2 {
        fill: #e5eef7;
        stroke-miterlimit: 2;
      }

      .cls-3 {
        fill: #f4f4f4;
      }
    </style>
  </defs>
  <path class="cls-2" d="M203.31,179.46h143.29c7.39,0,13.38,5.99,13.38,13.38v96.92c0,7.39-5.99,13.38-13.38,13.38h-29.33s-42.38,37.27-42.38,37.27v-37.27s-56.64,0-56.64,0h-14.94c-7.39,0-13.38-5.99-13.38-13.38v-96.92c0-7.39,5.99-13.38,13.38-13.38Z"/>
  <line class="cls-1" x1="218.39" y1="230.29" x2="311.15" y2="230.29"/>
  <line class="cls-1" x1="218.39" y1="250.64" x2="331.37" y2="250.64"/>
  <line class="cls-1" x1="218.39" y1="209.93" x2="331.37" y2="209.93"/>
  <line class="cls-1" x1="218.39" y1="270.93" x2="311.15" y2="270.93"/>
  <g>
    <path class="cls-3" d="M219.25,129.46H75.96c-7.39,0-13.38,5.99-13.38,13.38v96.92c0,7.39,5.99,13.38,13.38,13.38h24.95l42.38,37.27v-37.27h75.96c7.39,0,13.38-5.99,13.38-13.38v-96.92c0-7.39-5.99-13.38-13.38-13.38Z"/>
    <line class="cls-3" x1="91.05" y1="180.29" x2="183.8" y2="180.29"/>
    <line class="cls-3" x1="91.05" y1="200.64" x2="204.03" y2="200.64"/>
    <line class="cls-3" x1="91.05" y1="159.93" x2="204.03" y2="159.93"/>
    <line class="cls-3" x1="91.05" y1="220.93" x2="183.8" y2="220.93"/>
  </g>
</svg>