<?xml version="1.0" encoding="UTF-8"?>
<svg id="Ebene_2" data-name="Ebene 2" xmlns="http://www.w3.org/2000/svg" viewBox="0 0 425.2 425.2">
  <defs>
    <style>
      .cls-1 {
        fill: none;
        stroke-linecap: round;
      }

      .cls-1, .cls-2 {
        stroke: #292c2f;
        stroke-miterlimit: 10;
        stroke-width: 7.94px;
      }

      .cls-2 {
        fill: #bcb185;
      }
    </style>
  </defs>
  <path class="cls-2" d="M359.37,206.46c0-13.41-7.18-25.13-17.91-31.55.98-3.01,1.51-6.22,1.51-9.56,0-17.14-13.89-31.03-31.03-31.03-3.11,0-6.1.46-8.93,1.31-9.1-16.57-26.71-27.8-46.94-27.8-9.62,0-18.65,2.54-26.45,6.99-9.48-8.51-22.01-13.69-35.75-13.69-17.62,0-33.24,8.51-42.99,21.65-6.28-4.09-13.76-6.47-21.81-6.47-22.11,0-40.04,17.93-40.04,40.04,0,3.25.4,6.4,1.13,9.42-14.73,2.41-25.98,15.2-25.98,30.61s10.39,27.2,24.28,30.28c2.68,10.49,12.19,18.24,23.51,18.24,3.35,0,6.54-.68,9.45-1.91,4.63,24.85,26.42,43.66,52.61,43.66,10.52,0,20.33-3.04,28.6-8.28,2.28,4.53,5.94,8.24,10.43,10.59,1.17,12.31,11.53,21.95,24.15,21.95,1.4,0,2.77-.13,4.11-.35,5.03,6.25,11.05,16.38,11.73,29.63h22.57s-2.84-9.04-.77-18.38c5.65,2.48,11.89,3.87,18.45,3.87,25.35,0,45.91-20.55,45.91-45.91,0-.44-.02-.87-.03-1.31,5.43-5.59,8.77-13.21,8.77-21.61,0-7.11-2.4-13.65-6.42-18.89,10.69-6.42,17.84-18.13,17.84-31.51Z"/>
  <path class="cls-1" d="M261.22,155.97c6.08-3.72,13.23-5.87,20.88-5.87,22.11,0,40.04,17.93,40.04,40.04,0,6.26-1.44,12.18-4,17.46"/>
  <path class="cls-1" d="M188.45,188.96c-1.62-4.35-2.5-9.05-2.5-13.96,0-22.11,17.93-40.04,40.04-40.04s40.04,17.93,40.04,40.04c0,4.08-.61,8.01-1.74,11.71"/>
  <path class="cls-1" d="M124.4,204.8c-4.44-6.45-7.04-14.26-7.04-22.68,0-22.11,17.93-40.04,40.04-40.04,13.19,0,24.9,6.38,32.19,16.22"/>
  <path class="cls-1" d="M291.21,236.08c.9,3.39,1.38,6.96,1.38,10.63,0,22.89-18.56,41.45-41.45,41.45s-41.45-23.1-41.45-41.45c0-4.65.77-9.12,2.18-13.3"/>
  <path class="cls-1" d="M228.33,208.52c-7.31-9.39-11.08-21.28-9.71-31.07.64-4.61,2.02-8.93,4-12.87"/>
  <path class="cls-1" d="M300.84,178.21c.42,3.49.4,7.08-.11,10.72-1.23,8.79-5.13,16.55-10.77,22.57"/>
  <path class="cls-1" d="M175.65,230.93c-18.06-7.24-29.41-28.71-27.18-44.62.64-4.61,2.02-8.93,4-12.87"/>
  <path class="cls-1" d="M174.2,252.45c-.69-2.89-1.06-5.91-1.06-9.01,0-21.34,17.3-38.63,38.63-38.63s38.63,17.3,38.63,38.63c0,3.48-.46,6.85-1.32,10.06"/>
  <path class="cls-1" d="M248.7,232.03c5.87-12.61,18.65-21.35,33.48-21.35,20.38,0,36.91,16.52,36.91,36.91,0,4.05-.65,7.96-1.86,11.6"/>
</svg>