<?xml version="1.0" encoding="UTF-8"?>
<svg id="Ebene_2" data-name="Ebene 2" xmlns="http://www.w3.org/2000/svg" viewBox="0 0 425.2 425.2">
  <defs>
    <style>
      .cls-1 {
        fill: #bcb185;
      }

      .cls-1, .cls-2, .cls-3, .cls-4, .cls-5 {
        stroke-miterlimit: 10;
        stroke-width: 7.94px;
      }

      .cls-1, .cls-2, .cls-3, .cls-5 {
        stroke: #3a277b;
      }

      .cls-2, .cls-4 {
        fill: none;
      }

      .cls-3 {
        fill: #f9f6e3;
      }

      .cls-4 {
        stroke: #7f795b;
        stroke-linecap: round;
      }

      .cls-5 {
        fill: #ccbbdc;
      }
    </style>
  </defs>
  <path class="cls-5" d="M182.34,297.05h60.86v21.55c0,3.23-2.62,5.86-5.86,5.86h-49.15c-3.23,0-5.86-2.62-5.86-5.86v-21.55h0Z"/>
  <path class="cls-5" d="M193.55,324.23h38.44v10.1c0,3.23-2.62,5.86-5.86,5.86h-26.73c-3.23,0-5.86-2.62-5.86-5.86v-10.1h0Z"/>
  <path class="cls-3" d="M212.77,117.66h0c-41.58,0-75.28,33.7-75.28,75.28v3.58c0,15.18,5.84,29.78,16.31,40.78l5.45,5.73c6.59,6.92,10.27,16.11,10.27,25.67v15.67c0,7,5.68,12.68,12.68,12.68h61.13c7,0,12.68-5.68,12.68-12.68v-15.67c0-9.56,3.68-18.75,10.27-25.67l5.45-5.73c10.47-10.99,16.31-25.59,16.31-40.78v-3.58c0-41.58-33.7-75.28-75.28-75.28Z"/>
  <line class="cls-4" x1="212.69" y1="99.23" x2="212.69" y2="42.52"/>
  <line class="cls-4" x1="166.68" y1="111.51" x2="138.33" y2="62.4"/>
  <line class="cls-4" x1="132.97" y1="145.15" x2="83.87" y2="116.8"/>
  <line class="cls-4" x1="120.61" y1="191.13" x2="63.9" y2="191.13"/>
  <line class="cls-4" x1="132.89" y1="237.14" x2="83.78" y2="265.49"/>
  <line class="cls-4" x1="292.22" y1="237.29" x2="341.33" y2="265.65"/>
  <line class="cls-4" x1="304.59" y1="191.31" x2="361.3" y2="191.31"/>
  <line class="cls-4" x1="292.31" y1="145.3" x2="341.42" y2="116.95"/>
  <line class="cls-4" x1="258.67" y1="111.6" x2="287.02" y2="62.49"/>
  <line class="cls-2" x1="213.39" y1="297.48" x2="213.39" y2="203.3"/>
  <circle class="cls-1" cx="213.39" cy="192.06" r="12.59"/>
</svg>