<?xml version="1.0" encoding="UTF-8"?>
<svg id="Ebene_2" data-name="Ebene 2" xmlns="http://www.w3.org/2000/svg" viewBox="0 0 425.2 425.2">
  <defs>
    <style>
      .cls-1 {
        fill: #203c88;
        stroke: #fff;
        stroke-miterlimit: 10;
        stroke-width: 7.94px;
      }
    </style>
  </defs>
  <path class="cls-1" d="M340.15,233.83v-42.47h-23.4c-2.75-13.58-8.1-26.22-15.5-37.39l16.56-16.56-30.03-30.03-16.56,16.56c-11.16-7.4-23.8-12.75-37.39-15.5v-23.4h-42.47v23.4c-13.58,2.75-26.22,8.1-37.39,15.5l-16.56-16.56-30.03,30.03,16.56,16.56c-7.4,11.16-12.75,23.8-15.5,37.39h-23.4v42.47h23.4c2.75,13.58,8.1,26.22,15.5,37.39l-16.56,16.56,30.03,30.03,16.56-16.56c11.16,7.4,23.8,12.75,37.39,15.5v23.4h42.47v-23.4c13.58-2.75,26.22-8.1,37.39-15.5l16.56,16.56,30.03-30.03-16.56-16.56c7.4-11.16,12.75-23.8,15.5-37.39h23.4ZM212.6,271.31c-32.43,0-58.71-26.29-58.71-58.71s26.29-58.71,58.71-58.71,58.71,26.29,58.71,58.71-26.29,58.71-58.71,58.71Z"/>
</svg>