<?xml version="1.0" encoding="UTF-8"?>
<svg id="Ebene_2" data-name="Ebene 2" xmlns="http://www.w3.org/2000/svg" viewBox="0 0 425.2 425.2">
  <defs>
    <style>
      .cls-1 {
        fill: #ca9e67;
      }

      .cls-1, .cls-2, .cls-3 {
        stroke: #1d1d1b;
        stroke-miterlimit: 10;
        stroke-width: 7.94px;
      }

      .cls-2 {
        fill: #ccbbdc;
      }

      .cls-3 {
        fill: #292c2f;
      }
    </style>
  </defs>
  <path class="cls-3" d="M212.7,86.59c12.57-.9,30.26-1.16,36.2,8.62,7.63,12.57,11.22,3.14,20.81,17.41,13.35,19.88,6.12,20.29,12.86,31.52,6.73,11.22-3.59,5.39,7.79,21.9,6,8.7,1.8,17.96.45,28.28-1.35,10.32,7.63,21.55,1.8,38.61-3.14,9.19.45,16.16,1.8,27.38,1.35,11.22,4.94,13.02-11.22,29.18-16.16,16.16-145.44,1.8-153.07-12.57-7.63-14.36.45-18.4,0-29.63-.45-11.22-6.28-10.32-3.14-23.34s-2.24-19.3-.9-30.53c1.35-11.22,8.53-15.71,6.73-27.38-1.8-11.67-1.68-26.23,11.22-34.57,13.76-8.88,8.82-19.21,17.8-27.29,8.98-8.08,20.36-1.44,26.64-12.21,6.28-10.77,24.24-5.39,24.24-5.39Z"/>
  <path class="cls-2" d="M289.19,268.04l-13.46-5.07c-16.27-6.13-33.51-9.27-50.9-9.27h-30.89c-20.6,0-40.96,4.41-59.71,12.92l-2.07.94c-15.61,7.09-25.64,22.65-25.64,39.8v31.43h210.97v-29.85c0-18.2-11.28-34.49-28.31-40.91Z"/>
  <path class="cls-1" d="M233.26,233.19l-.51-4.5-1.77-15.8h-42.05l-1.08,14.95-.29,4.01-1.6,22.08c-.29,3.98,1.95,7.69,5.59,9.33,7.68,3.46,21.95,7.46,38.4.21,3.8-1.68,6.09-5.61,5.62-9.74l-2.31-20.55Z"/>
  <path class="cls-1" d="M262.11,169.6c-.32-.15-.66-.33-1-.54-.3-.13-.61-.24-.92-.31,0-.11-.01-.22-.02-.32-7.49-5.53-17.7-23.42-20.49-34.93-3.8-15.69-18.07-1.9-29.95-9.51-11.89-7.61-9.51,4.28-29,13.31-13.7,6.35-16.6,22.56-17.11,31.63-.09,1.59-2.26,2-2.92.55-.03-.06-.06-.13-.08-.19-3.1,1.69-5.33,6.33-5.33,11.81,0,6.9,3.54,12.5,7.9,12.5,1.07,0,2.09-.34,3.02-.95.67,2.86,1.21,4.71,1.28,4.7,7.61,22.06,24.55,37.42,44.23,37.42,17.59,0,32.99-12.26,41.49-30.62.32-.69.63-1.38.93-2.08.1-.23.2-.47.29-.7.14-.33.27-.66.4-.99.91-2.29,1.7-4.67,2.39-7.12.59.22,1.2.35,1.83.35,4.36,0,7.9-5.59,7.9-12.5,0-5.19-2-9.62-4.85-11.51Z"/>
</svg>