<?xml version="1.0" encoding="UTF-8"?>
<svg id="Ebene_2" data-name="Ebene 2" xmlns="http://www.w3.org/2000/svg" viewBox="0 0 425.2 425.2">
  <defs>
    <style>
      .cls-1 {
        fill: #764d3e;
      }

      .cls-1, .cls-2, .cls-3 {
        stroke: #fff;
        stroke-miterlimit: 10;
        stroke-width: 7.94px;
      }

      .cls-2 {
        fill: #292c2f;
      }

      .cls-3 {
        fill: #460900;
      }
    </style>
  </defs>
  <path class="cls-2" d="M301.01,159.13c6.78-11.23-5.6-19.29-5.6-19.29,4.73-12.21-7.09-18.31-7.09-18.31,3.55-12.21-8.27-15.87-8.27-15.87,2.36-15.87-14.18-12.21-14.18-12.21-3.55-14.65-15.37-8.54-15.37-8.54-3.55-10.99-15.37-6.1-15.37-6.1-5.91-9.77-16.55-3.66-16.55-3.66-11.82-9.77-20.74.39-20.74.39-7.74-8.15-17.08.83-17.08.83-13-4.88-14.18,13.43-14.18,13.43-13-3.66-14.25,9.93-14.25,9.93-17.8-2.28-14.12,18.15-14.12,18.15-17.73,2.44-14.18,18.31-14.18,18.31-20.09,9.77-2.36,28.08-2.36,28.08-10.64,8.54,0,18.31,0,18.31-9.46,14.65,7.09,19.53,7.09,19.53-4.73,8.54,4.73,15.87,4.73,15.87-1.18,12.21,9.46,13.43,9.46,13.43,1.18,9.77,13,6.1,13,6.1,1.18,13.43,18.91,4.88,18.91,4.88,1.51,2.59,4.51,3.86,7.46,4.47,3.69.76,7.51.49,11.11-.65,4.63-1.46,13.67-4.04,23.08-5.24.77,1.1,2.51,2.18,5.74,3.11,9.51,2.75,14.1-.04,15.96-1.89,16.46,5.99,24.72-5.3,24.72-5.3,11.82,3.66,16.55-8.54,16.55-8.54,15.37-1.22,11.82-15.87,11.82-15.87,10.64-1.22,11.82-18.31,11.82-18.31,8.27-8.54,1.77-17.7,1.77-17.7,8.27-9.77-3.86-17.33-3.86-17.33Z"/>
  <path class="cls-3" d="M290.43,269.62l-13.62-5.13c-16.46-6.2-33.9-9.37-51.49-9.37h-31.25c-20.84,0-41.44,4.46-60.41,13.07l-2.09.95c-15.8,7.17-25.94,22.92-25.94,40.26v31.79h213.43v-30.2c0-18.41-11.41-34.9-28.64-41.38Z"/>
  <path class="cls-1" d="M233.84,234.37l-.51-4.55-1.79-15.98h-42.54l-1.1,15.12-.29,4.06-1.62,22.34c-.29,4.02,1.97,7.78,5.65,9.44,7.77,3.5,22.21,7.55,38.85.21,3.84-1.69,6.16-5.68,5.69-9.85l-2.34-20.79Z"/>
  <path class="cls-1" d="M267.93,186.88c-1.81,1.68-4.01,2.74-6.39,2.91-6.97,27.85-26.12,47.84-48.65,47.84s-41.72-20.03-48.67-47.92c-5.98-.86-10.63-7.28-10.63-15.07,0-5.44,2.26-10.21,5.67-12.89,3.41-1.59,8.66-4.1,15.25-7.44,12.09-6.13,7.23-14.85,11.46-26.66,1.42-3.97,4.36-7.41,7.64-10.23,7.92,2.59,11.08,6.56,15.35,14.08,4.32,7.59,8.31,4.26,19.57,7.94,3.64,1.19,12.51,6.18,14.74,15.7,2.56,10.92,6.56,19.24,14.8,22.75,4.72,2.01,7.77,5.38,9.87,8.97Z"/>
</svg>