<?xml version="1.0" encoding="UTF-8"?>
<svg id="Ebene_2" data-name="Ebene 2" xmlns="http://www.w3.org/2000/svg" viewBox="0 0 425.2 425.2">
  <defs>
    <style>
      .cls-1 {
        fill: #203c88;
      }

      .cls-1, .cls-2, .cls-3 {
        stroke: #fff;
        stroke-miterlimit: 10;
        stroke-width: 7.94px;
      }

      .cls-2 {
        fill: #2f1d60;
      }

      .cls-3 {
        fill: #ca9e67;
      }
    </style>
  </defs>
  <path class="cls-1" d="M137.03,290.43h143.58c1.4,0,2.54-1.15,2.54-2.54l-.59-115.07c0-16.1-.07-31.94-4.29-47.48-19.83-73.1-67.9-60.79-77.94-59.06-1.31.23-2.64.4-3.97.46-34.27,1.61-63.57,45.5-61.87,91.56v129.59c0,1.4,1.15,2.54,2.54,2.54Z"/>
  <path class="cls-2" d="M288.87,269.16l-13.62-5.13c-16.46-6.2-33.9-9.37-51.49-9.37h-31.25c-20.84,0-41.44,4.46-60.41,13.07l-2.09.95c-15.8,7.17-25.94,22.92-25.94,40.26v31.79h213.43v-30.2c0-18.41-11.41-34.9-28.64-41.38Z"/>
  <path class="cls-3" d="M232.28,233.91l-.51-4.55-1.79-15.98h-42.54l-1.1,15.12-.29,4.06-1.62,22.34c-.29,4.02,1.97,7.78,5.65,9.44,7.77,3.5,22.21,7.55,38.85.21,3.84-1.69,6.16-5.68,5.69-9.85l-2.34-20.79Z"/>
  <path class="cls-3" d="M274.42,161.75c0-8.48-4.56-15.42-10.37-16.12-3-29.3-13.71-51.61-53.28-51.62-42.4-.01-50.39,22.38-52.88,51.57-6.15.18-11.09,7.34-11.09,16.17,0,8.31,4.38,15.14,10.02,16.07,2.5,36.45,25.65,54.84,53.96,54.84s51.72-18.44,54.2-54.97c5.36-1.29,9.44-7.93,9.44-15.94Z"/>
</svg>