<?xml version="1.0" encoding="UTF-8"?>
<svg id="Ebene_2" data-name="Ebene 2" xmlns="http://www.w3.org/2000/svg" viewBox="0 0 425.2 425.2">
  <defs>
    <style>
      .cls-1 {
        fill: #f6ad98;
      }

      .cls-1, .cls-2 {
        stroke: #fff;
        stroke-miterlimit: 10;
        stroke-width: 7.94px;
      }

      .cls-2 {
        fill: #292c2f;
      }
    </style>
  </defs>
  <path class="cls-2" d="M272.81,130.95c-.42-14.47-5.29-30.07-21.63-38.85-5.58-3-11-.35-15.77-1.84-4.54-1.42-8.01-4.61-15.79-5.94-3.87-.66-8.09-.66-12.59-.66-22.66,0-53.01,13.93-53.03,46.23v101.13h112.84s11.31-59.18,5.98-100.07Z"/>
  <path class="cls-2" d="M292.32,267.87l-13.62-5.13c-16.46-6.2-33.9-9.37-51.49-9.37h-31.25c-20.84,0-41.44,4.46-60.41,13.07l-2.09.95c-15.8,7.17-25.94,22.92-25.94,40.26v31.79h213.43v-30.2c0-18.41-11.41-34.9-28.64-41.38Z"/>
  <path class="cls-1" d="M235.73,232.62l-.51-4.55-1.79-15.98h-42.54l-1.1,15.12-.29,4.06-1.62,22.34c-.29,4.02,1.97,7.78,5.65,9.44,7.77,3.5,22.21,7.55,38.85.21,3.84-1.69,6.16-5.68,5.69-9.85l-2.34-20.79Z"/>
  <path class="cls-1" d="M258.89,156.81c-.57-5.87-1.68-11.5-3.27-16.76h-38.63l-7.86-9.89-.25,9.89h-36.86c-1.55,5.14-2.65,10.61-3.22,16.33-.02.22-.04.44-.06.66-.05.02-.1.04-.15.06-1.81.81-3.4,2.24-4.62,4.09-1.59,2.42-2.56,5.58-2.57,9.03v.05c0,6.83,3.75,12.51,8.71,13.68,5.48,27.18,22.98,47.06,43.71,47.06s38.18-19.82,43.69-46.94c5.25-.84,9.31-6.7,9.31-13.8,0-6.47-3.37-11.91-7.94-13.47Z"/>
</svg>