<?xml version="1.0" encoding="UTF-8"?>
<svg id="Ebene_2" data-name="Ebene 2" xmlns="http://www.w3.org/2000/svg" viewBox="0 0 425.2 425.2">
  <defs>
    <style>
      .cls-1 {
        fill: #bcb185;
      }

      .cls-1, .cls-2, .cls-3, .cls-4, .cls-5 {
        stroke: #1d1d1b;
        stroke-width: 7.94px;
      }

      .cls-1, .cls-3, .cls-4, .cls-5 {
        stroke-miterlimit: 10;
      }

      .cls-2 {
        fill: #e5eef7;
        stroke-miterlimit: 2;
      }

      .cls-3 {
        fill: none;
      }

      .cls-4 {
        fill: #ccbbdc;
      }

      .cls-5 {
        fill: #f4f4f4;
      }
    </style>
  </defs>
  <rect class="cls-2" x="42.52" y="75.3" width="255.08" height="185.52"/>
  <rect class="cls-4" x="170.06" y="136.28" width="98.98" height="91.55"/>
  <line class="cls-3" x1="72.76" y1="136.28" x2="148.7" y2="136.28"/>
  <line class="cls-3" x1="71.09" y1="166.77" x2="148.7" y2="166.77"/>
  <line class="cls-3" x1="71.09" y1="107.52" x2="212.52" y2="107.52"/>
  <line class="cls-3" x1="71.09" y1="197.3" x2="148.7" y2="197.3"/>
  <line class="cls-3" x1="71.09" y1="227.83" x2="148.7" y2="227.83"/>
  <rect class="cls-5" x="255.03" y="125.63" width="127.37" height="214.64" rx="14.91" ry="14.91"/>
  <rect class="cls-4" x="275.45" y="218.14" width="86.53" height="80.04"/>
  <line class="cls-3" x1="275.45" y1="319.02" x2="361.98" y2="319.02"/>
  <line class="cls-3" x1="350.97" y1="146.2" x2="361.98" y2="146.2"/>
  <line class="cls-3" x1="275.45" y1="146.2" x2="297.47" y2="146.2"/>
  <line class="cls-3" x1="275.45" y1="197.3" x2="361.98" y2="197.3"/>
  <path class="cls-1" d="M298.55,48.7l6.92,16.12,17.47,1.6c1.02.09,1.44,1.37.66,2.05l-13.19,11.56,3.87,17.11c.23,1-.86,1.79-1.74,1.26l-15.07-8.97-15.07,8.97c-.88.53-1.97-.26-1.74-1.26l3.87-17.11-13.19-11.56c-.77-.68-.36-1.95.66-2.05l17.47-1.6,6.92-16.12c.41-.95,1.75-.95,2.15,0Z"/>
  <path class="cls-1" d="M243.91,266.31l6.92,16.12,17.47,1.6c1.02.09,1.44,1.37.66,2.05l-13.19,11.56,3.87,17.11c.23,1-.86,1.79-1.74,1.26l-15.07-8.97-15.07,8.97c-.88.53-1.97-.26-1.74-1.26l3.87-17.11-13.19-11.56c-.77-.68-.36-1.95.66-2.05l17.47-1.6,6.92-16.12c.41-.95,1.75-.95,2.15,0Z"/>
</svg>