<?xml version="1.0" encoding="UTF-8"?>
<svg id="Ebene_2" data-name="Ebene 2" xmlns="http://www.w3.org/2000/svg" viewBox="0 0 425.2 425.2">
  <defs>
    <style>
      .cls-1 {
        fill: #3a277b;
      }

      .cls-1, .cls-2, .cls-3 {
        stroke: #fff;
        stroke-miterlimit: 10;
        stroke-width: 7.94px;
      }

      .cls-2 {
        fill: #f6ad98;
      }

      .cls-3 {
        fill: #292c2f;
      }
    </style>
  </defs>
  <path class="cls-1" d="M291,268.53l-13.62-5.13c-16.46-6.2-33.9-9.37-51.49-9.37h-31.25c-20.84,0-41.44,4.46-60.41,13.07l-2.09.95c-15.8,7.17-25.94,22.92-25.94,40.26v31.79h213.43v-30.2c0-18.41-11.41-34.9-28.64-41.38Z"/>
  <path class="cls-2" d="M234.41,233.28l-.51-4.55-1.79-15.98h-42.54l-1.1,15.12-.29,4.06-1.62,22.34c-.29,4.02,1.97,7.78,5.65,9.44,7.77,3.5,22.21,7.55,38.85.21,3.84-1.69,6.16-5.68,5.69-9.85l-2.34-20.79Z"/>
  <path class="cls-3" d="M163.07,174.03s-1.91-16.65.11-19.9c2.02-3.26,3.59-7.13,4.6-10.78,1.01-3.65,6.91-4.46,10.01-7.14,5.56-4.82,14.54-12.59,44.81-7.37,30.27,5.22,29.36,2.28,35.66,13.4,5.7,10.05,5.03,18.96,4.83,20.4-.72,5.2-.75,8.73-.75,8.73,0,0,7.25-13.24,7.34-25.73.09-12.49-1.93-15.62-1.93-19.28s1.01-12.53-1.51-13.05c-2.52-.52-3.03-2.61-4.04-6.79-1.01-4.18-5.04-5.22-7.06-5.74s-2.02-5.22-5.04-6.79-9.08-6.27-11.6-6.27-3.48-1.57-8.3,0c-4.82,1.57-3.31-3.65-4.82-4.18-1.51-.52-8.3-1.04-9.7,0-1.4,1.04-6.45,0-8.46-2.09-2.02-2.09-3.53.52-5.04,2.09-1.51,1.57-2.52-1.57-4.04-1.04-1.51.52-3.53,4.18-5.04,3.65-1.51-.52-6.05,0-8.58,1.57-2.52,1.57-7.57,2.61-8.07,5.22-.5,2.61-5.55-.52-6.56,2.09-1.01,2.61-4.54,4.7-3.53,6.27,1.01,1.57-1.51,0-2.52,1.57-1.01,1.57-2.02,2.09-3.53,4.7s-4.04,1.57-3.53,5.74c.5,4.18-3.53,20.36-2.52,23.49,1.01,3.13,0,28.63,8.82,37.24Z"/>
  <path class="cls-2" d="M264.28,167.01c-.3-9.02-.98-17.64-2.61-25.47-3.01-3.97-6.01-7.95-9.02-11.92-2.6-3.43-6.09-7.25-10.34-6.58-.3,1.99-2.95,2.81-4.84,2.11-1.89-.7-3.24-2.35-4.71-3.73-1.47-1.38-3.43-2.61-5.39-2.15-1.04.24-2.02.94-3.07.72-.9-.18-1.56-1.01-2.45-1.22-1.76-.42-3.05,1.57-4.63,2.47-3.54,2.01-9.3-1.37-11.55,2.03-1.37-1.21-2.73-2.42-4.1-3.63-2.35,3.43-5.62,6.21-9.39,7.98-2.56-1.35-5.13-2.71-7.69-4.06-.76-.4-1.58-.81-2.43-.68-1.14.17-1.88,1.23-2.66,2.08-2.69,2.94-6.82,3.94-10.56,5.32-2.17.8-4.43,4.57-6.08,6.83-2.02,8.87-2.63,18.95-3.14,29.56-3.71,2.17-6.31,7.17-6.31,13.01,0,6.43,3.16,11.86,7.49,13.58,5.69,27.97,26.3,42.07,50.94,42.07s45.5-14.16,51.19-42.24c4.12-1.89,7.08-7.18,7.08-13.41,0-5.53-2.34-10.32-5.74-12.65Z"/>
</svg>