<?xml version="1.0" encoding="UTF-8"?>
<svg id="Ebene_2" data-name="Ebene 2" xmlns="http://www.w3.org/2000/svg" viewBox="0 0 425.2 425.2">
  <defs>
    <style>
      .cls-1 {
        fill: #bdbcbc;
      }

      .cls-1, .cls-2, .cls-3 {
        stroke: #1d1d1b;
        stroke-miterlimit: 10;
        stroke-width: 7.94px;
      }

      .cls-2 {
        fill: #764d3e;
      }

      .cls-3 {
        fill: #292c2f;
      }
    </style>
  </defs>
  <path class="cls-1" d="M291.32,268.04l-13.46-5.07c-16.27-6.13-33.51-9.27-50.9-9.27h-30.89c-20.6,0-40.96,4.41-59.71,12.92l-2.07.94c-15.61,7.09-25.64,22.65-25.64,39.8v31.43h210.97v-29.85c0-18.2-11.28-34.49-28.31-40.91Z"/>
  <path class="cls-2" d="M235.38,233.19l-.51-4.5-1.77-15.8h-42.05l-1.08,14.95-.29,4.01-1.6,22.08c-.29,3.98,1.95,7.69,5.59,9.33,7.68,3.46,21.95,7.46,38.4.21,3.8-1.68,6.09-5.61,5.62-9.74l-2.31-20.55Z"/>
  <path class="cls-3" d="M217.76,82.8c11.39-1.09,11.39,4.88,21.16,7.05,9.77,2.17,21.7,8.68,24.41,18.45,2.71,9.77,8.14,9.77,8.14,20.62s3.8,31.47-8.14,39.6c-11.94,8.14-94.95,11.12-104.17-2.31-9.21-13.43-1.62-32.96-1.08-37.3.54-4.34,3.8-18.45,8.68-21.7,4.88-3.26,7.05-11.94,14.65-18.45,7.6-6.51,36.35-5.97,36.35-5.97Z"/>
  <path class="cls-2" d="M271.71,167.43c0-7.67-4.13-13.96-9.39-14.59-2.72-26.51-12.41-46.71-48.22-46.72-38.37-.01-45.6,20.25-47.86,46.67-5.56.17-10.04,6.65-10.04,14.63,0,7.52,3.97,13.7,9.07,14.54,2.26,32.98,23.21,49.63,48.84,49.63s46.81-16.68,49.05-49.74c4.85-1.17,8.54-7.17,8.54-14.43Z"/>
</svg>