<?xml version="1.0" encoding="UTF-8"?>
<svg id="Ebene_2" data-name="Ebene 2" xmlns="http://www.w3.org/2000/svg" viewBox="0 0 425.2 425.2">
  <defs>
    <style>
      .cls-1 {
        fill: #764d3e;
      }

      .cls-1, .cls-2 {
        stroke: #fff;
        stroke-miterlimit: 10;
        stroke-width: 7.94px;
      }

      .cls-2 {
        fill: #292c2f;
      }
    </style>
  </defs>
  <path class="cls-2" d="M291.26,269.08l-13.62-5.13c-16.46-6.2-33.9-9.37-51.49-9.37h-31.25c-20.84,0-41.44,4.46-60.41,13.07l-2.09.95c-15.8,7.17-25.94,22.92-25.94,40.26v31.79h213.43v-30.2c0-18.41-11.41-34.9-28.64-41.38Z"/>
  <path class="cls-1" d="M234.67,233.83l-.51-4.55-1.79-15.98h-42.54l-1.1,15.12-.29,4.06-1.62,22.34c-.29,4.02,1.97,7.78,5.65,9.44,7.77,3.5,22.21,7.55,38.85.21,3.84-1.69,6.16-5.68,5.69-9.85l-2.34-20.79Z"/>
  <path class="cls-2" d="M216.84,81.69c11.53-1.1,11.53,4.94,21.4,7.13,9.88,2.2,21.95,8.78,24.7,18.66,2.74,9.88,8.23,9.88,8.23,20.86s3.84,31.83-8.23,40.06c-12.07,8.23-96.06,11.25-105.38-2.33-9.32-13.58-1.64-33.34-1.09-37.73.55-4.39,3.84-18.66,8.78-21.95,4.94-3.29,7.13-12.07,14.82-18.66,7.68-6.59,36.77-6.04,36.77-6.04Z"/>
  <path class="cls-1" d="M271.42,167.31c0-7.76-4.18-14.12-9.5-14.76-2.75-26.82-12.56-47.25-48.78-47.26-38.82-.01-46.13,20.49-48.41,47.22-5.63.17-10.15,6.72-10.15,14.8,0,7.61,4.01,13.86,9.18,14.71,2.29,33.37,23.48,50.21,49.41,50.21s47.35-16.88,49.62-50.32c4.9-1.18,8.64-7.26,8.64-14.6Z"/>
</svg>