<?xml version="1.0" encoding="UTF-8"?>
<svg id="Ebene_2" data-name="Ebene 2" xmlns="http://www.w3.org/2000/svg" viewBox="0 0 425.2 425.2">
  <defs>
    <style>
      .cls-1 {
        fill: #203c88;
      }

      .cls-1, .cls-2, .cls-3 {
        stroke: #fff;
        stroke-miterlimit: 10;
        stroke-width: 7.94px;
      }

      .cls-2 {
        fill: #ca9e67;
      }

      .cls-3 {
        fill: #292c2f;
      }
    </style>
  </defs>
  <path class="cls-3" d="M213.24,85.52c12.72-.91,30.61-1.17,36.62,8.72,7.72,12.72,11.35,3.18,21.05,17.62,13.51,20.11,6.2,20.53,13.01,31.88,6.81,11.35-3.63,5.45,7.88,22.16,6.07,8.8,1.82,18.17.45,28.61-1.36,10.45,7.72,21.8,1.82,39.06-3.18,9.3.45,16.35,1.82,27.7,1.36,11.35,5,13.17-11.35,29.52-16.35,16.35-147.14,1.82-154.86-12.72-7.72-14.53.45-18.62,0-29.97-.45-11.35-6.36-10.45-3.18-23.62,3.18-13.17-2.27-19.53-.91-30.88,1.36-11.35,8.63-15.89,6.81-27.7-1.82-11.81-1.7-26.54,11.35-34.97,13.92-8.99,8.92-19.43,18-27.61,9.08-8.17,20.6-1.46,26.96-12.36,6.36-10.9,24.52-5.45,24.52-5.45Z"/>
  <path class="cls-1" d="M290.62,269.08l-13.62-5.13c-16.46-6.2-33.9-9.37-51.49-9.37h-31.25c-20.84,0-41.44,4.46-60.41,13.07l-2.09.95c-15.8,7.17-25.94,22.92-25.94,40.26v31.79h213.43v-30.2c0-18.41-11.41-34.9-28.64-41.38Z"/>
  <path class="cls-2" d="M234.03,233.83l-.51-4.55-1.79-15.98h-42.54l-1.1,15.12-.29,4.06-1.62,22.34c-.29,4.02,1.97,7.78,5.65,9.44,7.77,3.5,22.21,7.55,38.85.21,3.84-1.69,6.16-5.68,5.69-9.85l-2.34-20.79Z"/>
  <path class="cls-2" d="M263.22,169.49c-.33-.15-.66-.33-1.01-.54-.31-.13-.61-.24-.93-.31,0-.11-.01-.22-.02-.33-7.58-5.6-17.91-23.7-20.73-35.34-3.85-15.87-18.28-1.92-30.3-9.62-12.02-7.7-9.62,4.33-29.34,13.47-13.86,6.42-16.79,22.82-17.31,32-.09,1.61-2.28,2.03-2.95.56-.03-.06-.06-.13-.08-.19-3.13,1.71-5.39,6.4-5.39,11.95,0,6.98,3.58,12.64,7.99,12.64,1.08,0,2.11-.34,3.06-.96.68,2.9,1.22,4.76,1.3,4.75,7.7,22.32,24.84,37.85,44.75,37.85,17.79,0,33.37-12.41,41.98-30.97.32-.69.64-1.4.94-2.11.1-.24.2-.47.3-.71.14-.33.27-.67.41-1,.92-2.32,1.72-4.73,2.42-7.2.6.22,1.21.35,1.85.35,4.41,0,7.99-5.66,7.99-12.64,0-5.25-2.02-9.73-4.9-11.64Z"/>
</svg>