<?xml version="1.0" encoding="UTF-8"?>
<svg id="Ebene_2" data-name="Ebene 2" xmlns="http://www.w3.org/2000/svg" viewBox="0 0 425.2 425.2">
  <defs>
    <style>
      .cls-1 {
        fill: #e5eef7;
        stroke: #3a277b;
        stroke-miterlimit: 10;
        stroke-width: 7.94px;
      }
    </style>
  </defs>
  <path class="cls-1" d="M340.15,142.94l-17.32-31.97c-64.23,32.57-96.35,77.86-96.35,135.87,0,18.94,5.99,35.15,17.98,48.62,11.99,13.47,26.27,20.2,42.85,20.2,14.8,0,27.16-5.18,37.07-15.54,9.92-10.37,14.88-23.09,14.88-38.19,0-13.91-5.03-26.35-15.1-37.3-10.06-10.94-22.94-17.32-38.63-19.09,0-23.98,18.21-44.85,54.61-62.61ZM198.68,142.94l-17.32-31.97c-64.23,32.57-96.35,77.86-96.35,135.87,0,18.94,6.07,35.15,18.2,48.62,12.15,13.47,26.5,20.2,43.07,20.2,14.81,0,27.08-5.18,36.85-15.54,9.77-10.37,14.66-23.09,14.66-38.19,0-13.91-5.03-26.35-15.1-37.3-10.06-10.94-22.79-17.32-38.19-19.09,0-23.98,18.06-44.85,54.17-62.61Z"/>
</svg>
